PathFileType	4	(X/Y/Z)	C:\Users\Basilio\Documents\Thesis Gigler\squatting_fais\c3dfiles\041\SJ_pre2\markers_experimental.trc
DataRate	CameraRate	NumFrames	NumMarkers	Units	OrigDataRate	OrigDataStartFrame	OrigNumFrames
200.000000	200.000000	4	62	mm	200.000000	695	1390
Frame#	Time	FHD			LBHD			RBHD			C7			T10			CLAV			LSHO			LUUPA			LMUPA			LDUPA			LLEP			LMEP			LRAD			LUL			LRFIN			RSHO			RUPA1			RMUPA			RDUPA			RLEP			RMEP			RRAD			RUL			RUFIN			LASI			RASI			USACR			LSACR			RSACR			LTHI1			LTHI2			LTHI3			LTHI4			LLFC			LMFC			LTIB1			LTIB2			LTIB3			LTIB4			LLMAL			LMMAL			LHEE			LMT1			LMT2			LMT5			RTHI			RTHI2			RTHI3			RTHI4			RLFC			RMFC			RTIB1			RTIB2			RTIB3			RTIB4			RLMAL			RMMAL			RHEE			RMT1			RMT2			RMT5			*61			
		X1	Y1	Z1	X2	Y2	Z2	X3	Y3	Z3	X4	Y4	Z4	X5	Y5	Z5	X6	Y6	Z6	X7	Y7	Z7	X8	Y8	Z8	X9	Y9	Z9	X10	Y10	Z10	X11	Y11	Z11	X12	Y12	Z12	X13	Y13	Z13	X14	Y14	Z14	X15	Y15	Z15	X16	Y16	Z16	X17	Y17	Z17	X18	Y18	Z18	X19	Y19	Z19	X20	Y20	Z20	X21	Y21	Z21	X22	Y22	Z22	X23	Y23	Z23	X24	Y24	Z24	X25	Y25	Z25	X26	Y26	Z26	X27	Y27	Z27	X28	Y28	Z28	X29	Y29	Z29	X30	Y30	Z30	X31	Y31	Z31	X32	Y32	Z32	X33	Y33	Z33	X34	Y34	Z34	X35	Y35	Z35	X36	Y36	Z36	X37	Y37	Z37	X38	Y38	Z38	X39	Y39	Z39	X40	Y40	Z40	X41	Y41	Z41	X42	Y42	Z42	X43	Y43	Z43	X44	Y44	Z44	X45	Y45	Z45	X46	Y46	Z46	X47	Y47	Z47	X48	Y48	Z48	X49	Y49	Z49	X50	Y50	Z50	X51	Y51	Z51	X52	Y52	Z52	X53	Y53	Z53	X54	Y54	Z54	X55	Y55	Z55	X56	Y56	Z56	X57	Y57	Z57	X58	Y58	Z58	X59	Y59	Z59	X60	Y60	Z60	X61	Y61	Z61	X62	Y62	Z62	

696	3.475	32.93547821044923	1240.873901367188	-900.1397094726565	-145.0176239013672	1178.961059570313	-977.6092529296877	-124.666862487793	1178.970825195313	-824.5606079101565	-201.8968200683594	1094.645751953125	-912.436218261719	-422.6789550781251	888.4427490234377	-913.5317993164065	-94.04782867431642	956.0291748046877	-911.1743164062502	-120.5698318481446	1036.725708007813	-1080.902465820313	-233.0452117919922	968.1875610351565	-1230.289794921875	-251.9823150634766	923.2864379882815	-1229.018798828125	-283.2106018066407	947.3784179687502	-1274.70263671875	-324.4900817871094	923.8499145507815	-1301.875732421875	-396.7501525878907	951.6680297851565	-1249.784545898438	-445.5167541503907	766.2605590820314	-1117.942504882813	-454.0101623535157	712.6834716796876	-1171.906982421875	-409.4359741210939	728.4008789062501	-1080.376220703125	-107.3287887573242	1028.272827148438	-743.3791503906251	-210.5714416503907	945.6091308593752	-563.9470214843751	-204.8438415527344	897.2359619140627	-578.0360107421876	-239.8701324462891	888.176208496094	-532.3161010742189	-271.8369445800782	850.944519042969	-517.3781127929689	-347.0603637695313	902.705749511719	-542.1845092773439	-454.5968322753907	760.1951293945314	-685.2905883789064	-420.3338317871095	740.3460693359376	-736.8012695312501	-442.6649780273439	693.5268554687501	-646.0051879882814	-392.8939514160157	668.2476196289064	-1016.918884277344	-400.918914794922	676.9170532226564	-801.182312011719	-521.8728027343751	811.4878540039065	-915.7588500976565	-551.4697265625001	798.6533203125002	-943.2668457031252	-552.7333374023439	798.8379516601565	-887.3845214843752	-461.9749145507814	570.4355468750001	-1126.575927734375	-377.2145080566407	566.1279296875001	-1139.410400390625	-352.8135070800782	604.3392944335939	-1123.386352539063	-344.6819152832032	515.5820922851564	-1147.374755859375	-191.3842163085938	445.3743896484376	-1160.960693359375	-168.9751739501953	413.062713623047	-1055.788818359375	-225.4809112548829	261.1850280761719	-1131.271484375	-295.7557678222657	255.1554718017579	-1192.719482421875	-264.1877136230469	235.773666381836	-1169.304321289063	-296.6099243164063	160.590087890625	-1144.875244140625	-396.1003417968751	103.9674224853516	-1189.030395507813	-353.5205688476563	99.67119598388675	-1109.097412109375	-460.9382629394532	55.06396484375001	-1155.477172851563	-243.7854614257813	57.44149017333986	-1143.616943359375	-239.2843933105469	58.53852462768556	-1188.692504882813	-283.4033813476563	37.12760162353516	-1243.12646484375	-409.602264404297	547.9572143554689	-696.3729858398439	-343.4032592773438	554.4100952148439	-689.3504638671876	-325.7881164550782	581.4020385742189	-697.5948486328126	-289.1585693359376	487.3338623046876	-687.5003662109376	-202.0948791503907	432.1929321289064	-680.1998291015626	-178.4137268066407	411.2871704101564	-790.320495605469	-226.1566619873047	277.2469177246094	-685.0493164062501	-336.1794128417969	246.4507141113282	-671.3097534179689	-294.0239257812501	224.6353454589844	-673.7385253906251	-297.1014099121094	172.3475646972657	-700.0458374023439	-399.9979553222657	94.56452941894533	-684.0249633789064	-366.3952026367188	99.17452239990237	-763.7965087890626	-463.6038818359376	50.33224105834962	-732.1190795898439	-245.0642089843751	51.55334854125978	-721.5621948242189	-248.0027770996094	56.10612106323244	-670.3519287109376	-295.2983093261719	37.76894760131837	-623.5961914062501	-4217.034667968751	853.140075683594	-3944.724365234376	
697	3.48	32.87157058715821	1241.22021484375	-900.1151123046877	-145.02294921875	1179.354125976563	-977.6591796875002	-124.8593063354492	1179.307250976563	-824.599304199219	-202.0175170898438	1095.04833984375	-912.4378662109377	-422.6919555664064	889.0088500976565	-913.5775146484377	-93.99275970458986	956.6082763671877	-911.2650146484377	-120.3048706054688	1037.144653320313	-1080.880615234375	-233.1441192626954	968.8272094726565	-1230.2744140625	-252.0730133056641	923.9497680664065	-1229.157958984375	-283.4352722167969	948.1301879882815	-1274.677368164063	-324.6588134765626	924.5184326171877	-1301.875854492188	-396.8013916015626	952.1262207031252	-1249.7216796875	-445.5283508300782	766.6853637695314	-1118.033569335938	-454.047332763672	713.1312866210939	-1171.999389648438	-409.2080383300782	728.2026977539064	-1080.611206054688	-107.3264083862305	1028.683959960938	-743.4135131835939	-210.538070678711	946.0430297851565	-564.0046997070314	-204.6050872802735	897.6069946289065	-578.2785034179689	-239.7541656494141	888.5764160156252	-532.3111572265626	-271.8861694335938	851.3401489257815	-517.3988647460939	-347.0291442871094	903.0858154296877	-542.2257080078126	-454.5666503906251	760.6161499023439	-685.3562622070314	-420.2442932128907	740.7079467773439	-736.9614868164064	-442.6311340332032	694.0583496093751	-646.0164184570314	-393.1896362304689	668.4232788085939	-1017.018615722656	-401.2890625000001	677.3138427734376	-801.4268798828127	-521.9029541015626	811.9078369140627	-915.8679809570315	-551.4848632812501	799.1085205078127	-943.3178710937502	-552.6884765625001	799.247009277344	-887.3831787109377	-462.1111755371095	570.7874145507814	-1126.653564453125	-377.4188842773438	566.4796752929689	-1139.5283203125	-352.9593200683594	604.6136474609376	-1123.477783203125	-344.8423461914063	515.7973632812501	-1147.51318359375	-191.7246704101563	445.5631408691407	-1161.088134765625	-169.031982421875	413.2903747558595	-1055.800170898438	-225.8158569335938	261.3432922363282	-1131.211059570313	-295.9211425781251	255.2067260742188	-1192.753051757813	-264.4122924804688	235.8879089355469	-1169.294311523438	-296.7428894042969	160.6702728271485	-1144.93505859375	-396.1670532226564	103.9523391723633	-1189.0703125	-353.5519714355469	99.68582153320315	-1109.099975585938	-460.9553527832032	55.02459716796876	-1155.530395507813	-243.8169555664063	57.43994903564455	-1143.619140625	-239.2994689941407	58.59725189208986	-1188.747314453125	-283.4069519042969	37.14173889160157	-1243.184326171875	-409.5354309082032	548.3399047851564	-696.6455688476564	-343.4905090332032	554.6752319335939	-689.4822387695314	-325.8689880371094	581.6408691406251	-697.7118530273439	-289.4541320800782	487.529266357422	-687.6132202148439	-202.2428283691407	432.3931274414064	-680.3178710937501	-178.4663696289063	411.4704895019532	-790.492126464844	-226.3342437744141	277.3446960449219	-685.1492919921876	-336.2810668945313	246.5214080810547	-671.4096069335939	-294.0906982421876	224.7128448486329	-673.8001708984376	-297.1884155273438	172.4139251708985	-700.1257324218751	-400.0195617675782	94.53368377685548	-684.0075073242189	-366.3369445800782	99.15159606933597	-763.8010864257814	-463.662811279297	50.35923004150392	-732.1623535156251	-245.0220031738282	51.58433151245119	-721.5849609375001	-248.0286712646485	55.7587356567383	-670.5307617187501	-295.2698364257813	37.76142501831055	-623.5963134765626	-4216.868652343751	853.1894531250002	-3944.790527343751	
698	3.485	32.75540924072266	1241.509765625	-900.0679321289065	-144.9989471435547	1179.802856445313	-977.7741699218752	-124.8897247314453	1179.748901367188	-824.5964355468752	-202.2179260253907	1095.5908203125	-912.437194824219	-422.7886962890626	889.4320068359377	-913.6177368164065	-94.08437347412111	956.9927368164065	-911.3789062500002	-120.8329391479492	1037.889282226563	-1081.018432617188	-233.3298645019532	969.5249633789065	-1230.255737304688	-252.224838256836	924.675231933594	-1229.238037109375	-283.6824951171876	948.770446777344	-1274.628295898438	-325.1949768066407	925.0568847656252	-1301.660522460938	-396.8956604003907	952.6484375000002	-1249.731323242188	-445.6743164062501	767.1143188476564	-1118.123413085938	-454.0519104003907	713.5151977539064	-1172.046264648438	-409.7163085937501	729.1656494140626	-1080.445190429688	-107.2581253051758	1029.304931640625	-743.4696655273439	-210.5090484619141	946.463806152344	-564.1173095703126	-204.6910552978516	897.9503173828127	-578.4026489257814	-239.8296966552735	888.9746704101565	-532.3198852539064	-271.9049987792969	851.7303466796877	-517.4747924804689	-346.8729248046876	903.507263183594	-542.3125610351564	-454.5657958984376	761.0205078125001	-685.4328613281251	-420.2929687500001	740.9940795898439	-737.0272827148439	-442.6551513671876	694.1950683593751	-646.0854492187501	-393.1161499023439	669.1336669921876	-1017.14599609375	-401.100311279297	677.6969604492189	-801.4900512695315	-521.9722900390626	812.4671020507815	-915.9358520507815	-551.5484619140626	799.5662841796877	-943.3945922851565	-553.0761108398439	799.9048461914065	-887.5465087890627	-462.2823791503907	571.1007080078126	-1126.701416015625	-377.6426391601563	566.7081298828126	-1139.56884765625	-353.1199035644532	604.9344482421876	-1123.55517578125	-345.0167236328126	516.0301513671876	-1147.536499023438	-192.0165252685547	445.720672607422	-1161.195190429688	-169.2190551757813	413.5289916992189	-1055.790893554688	-225.9049377441407	261.4382629394532	-1131.287231445313	-295.9967956542969	255.2911224365235	-1192.808715820313	-264.5223693847657	235.9625701904297	-1169.386352539063	-296.7304382324219	160.882568359375	-1145.000610351563	-396.1648559570314	103.9059448242188	-1189.124755859375	-353.5907897949219	99.70082092285159	-1109.153442382813	-460.9285888671876	54.94429779052736	-1155.550903320313	-244.1356506347657	57.21108245849611	-1143.6201171875	-239.2506103515626	58.22909545898439	-1188.572509765625	-283.3795471191407	37.09880828857423	-1243.172729492188	-409.6371459960939	548.7082519531251	-696.7894287109376	-343.5390625000001	554.9114379882814	-689.7144165039064	-325.9160156250001	581.8566284179689	-697.8024291992189	-289.6840820312501	487.835662841797	-687.7053222656251	-202.376693725586	432.5605468750001	-680.5202026367189	-178.6470794677735	411.5776367187501	-790.6721191406252	-226.4445190429688	277.4566650390626	-685.2396850585939	-336.4730224609376	246.625473022461	-671.4442138671876	-294.1599426269532	224.7699432373047	-673.8256835937501	-297.2615966796876	172.471664428711	-700.1320190429689	-400.0399780273439	94.56642150878908	-684.0236816406251	-366.3967285156251	99.1664733886719	-763.8367919921876	-463.681121826172	50.36842346191408	-732.1487426757814	-245.0261993408204	51.5635108947754	-721.5593872070314	-248.0293121337891	56.13103485107423	-670.3568115234376	-295.2797241210938	37.79423904418946	-623.6299438476564	-4217.008300781251	853.1623535156252	-3944.775390625001	
699	3.49	32.51724243164063	1241.911499023438	-899.8391723632815	-144.9852905273438	1180.204956054688	-977.8197021484377	-124.8736877441407	1180.185546875	-824.6826782226565	-202.2393493652344	1095.940673828125	-912.5258789062502	-422.8687744140626	889.6900634765627	-913.6354980468752	-94.15132141113283	957.385437011719	-911.5220336914065	-120.6015930175782	1038.088623046875	-1080.927368164063	-233.5501403808594	970.274108886719	-1230.180908203125	-252.5343933105469	925.2840576171877	-1229.1396484375	-283.4575805664063	949.0464477539065	-1274.469482421875	-325.3340759277344	925.5921630859377	-1301.600830078125	-397.0450134277345	953.1638183593752	-1249.704833984375	-445.8564758300782	767.5899047851564	-1118.094970703125	-454.049285888672	713.9826049804689	-1172.148071289063	-409.6387634277345	729.3823852539064	-1080.558959960938	-107.2496643066407	1029.566772460938	-743.5091552734376	-210.3694305419922	946.923034667969	-564.2622680664064	-204.8189239501954	898.3106689453127	-578.4122924804689	-239.7295989990235	889.3772583007815	-532.4311523437501	-271.8159790039063	852.049499511719	-517.5199584960939	-346.8880615234376	903.8640747070315	-542.4141235351564	-454.7355957031251	761.4003295898439	-685.7951049804689	-420.2752380371095	741.0939941406251	-737.0951538085939	-442.4222412109376	694.6593627929689	-646.1526489257814	-392.8741149902345	669.7519531250001	-1017.279052734375	-400.606170654297	677.8864746093751	-801.4461059570315	-522.0447387695314	812.9117431640627	-915.9384765625002	-551.5697631835939	800.0372314453127	-943.401306152344	-552.9481811523439	800.2517700195315	-887.626403808594	-462.4462890625001	571.4562377929689	-1126.729736328125	-377.7995910644532	567.0330200195314	-1139.675659179688	-353.3094482421876	605.2155761718751	-1123.688842773438	-345.1804809570313	516.2871704101564	-1147.607543945313	-192.218734741211	445.9154052734376	-1161.335815429688	-169.392333984375	414.044891357422	-1055.746826171875	-226.0455322265626	261.5371398925782	-1131.30224609375	-296.0927124023438	255.2953338623047	-1192.907348632813	-264.6130981445313	236.0995635986329	-1169.396118164063	-296.9264221191407	160.9940338134766	-1145.05419921875	-396.2121887207032	103.9093627929688	-1189.128784179688	-353.5834045410157	99.691764831543	-1109.202026367188	-460.9339294433595	54.93569183349611	-1155.546630859375	-244.1053924560547	57.24581909179689	-1143.70263671875	-239.1772918701172	58.33584213256837	-1188.5908203125	-283.4054565429688	37.12363433837891	-1243.212158203125	-409.7284240722657	548.9159545898439	-696.9465942382814	-343.5823059082032	555.1651000976564	-689.9044799804689	-326.0438537597657	582.1544189453126	-697.8704833984376	-289.7634277343751	487.9923706054689	-687.7920532226564	-202.4663696289063	432.6016845703126	-680.7108154296876	-178.7447052001953	411.778533935547	-790.8751220703127	-226.5282897949219	277.5211486816407	-685.3574218750001	-336.5954284667969	246.7382965087891	-671.6004028320314	-294.2256164550782	224.8179779052735	-673.8985595703126	-297.3488159179688	172.5716857910157	-700.2293090820314	-400.0662536621095	94.56725311279298	-684.0307006835939	-366.4519042968751	99.16287231445315	-763.8111572265626	-463.6871948242189	50.36932373046876	-732.1434936523439	-245.0424804687501	51.57023239135744	-721.5820922851564	-247.9834442138672	56.11073303222658	-670.3500976562501	-295.2838134765626	37.81046295166016	-623.6276245117189	-4216.669921875001	853.1234130859377	-3944.856689453126	
